<?xml version="1.0" encoding="utf-8"?>
<svg viewBox="0 0 1024 1008" xmlns="http://www.w3.org/2000/svg">
  <path opacity="1.000000" stroke="none" d="&#10;M208.000000,1009.000000 &#10;&#9;C199.310684,1009.000000 190.621384,1009.000000 181.390778,1008.638428 &#10;&#9;C179.073090,1007.541565 177.324341,1006.728638 175.515518,1006.084534 &#10;&#9;C167.238480,1003.136780 158.670334,1000.839417 150.703430,997.216370 &#10;&#9;C112.787102,979.973022 82.592598,952.850037 56.735817,920.903198 &#10;&#9;C32.483952,890.939270 14.060978,857.552002 2.991290,820.378845 &#10;&#9;C2.720329,819.468933 1.680957,818.787842 0.999990,818.000000 &#10;&#9;C1.000000,621.310669 1.000000,424.621368 1.362844,227.394531 &#10;&#9;C2.176791,226.038208 2.814891,225.269943 3.051750,224.393265 &#10;&#9;C9.680991,199.856339 19.930935,176.848923 32.590591,154.891052 &#10;&#9;C45.062454,133.258911 59.826340,113.263023 77.264771,95.399757 &#10;&#9;C87.109123,85.315598 97.508385,75.724716 108.150894,66.479378 &#10;&#9;C124.610237,52.180832 142.831070,40.328762 162.028595,30.036388 &#10;&#9;C185.273239,17.574232 209.797073,8.501116 235.602783,2.927551 &#10;&#9;C236.498825,2.734022 237.205215,1.662372 238.000000,1.000003 &#10;&#9;C432.022614,1.000000 626.045227,1.000000 820.599976,1.357832 &#10;&#9;C822.390930,2.417039 823.571167,3.396985 824.920471,3.778441 &#10;&#9;C849.610962,10.758329 872.289978,22.122086 893.431213,36.375610 &#10;&#9;C915.107422,50.989777 934.405884,68.401993 951.748779,88.083221 &#10;&#9;C969.876953,108.655594 984.840820,131.299881 997.174866,155.629715 &#10;&#9;C1008.230042,177.437012 1016.589355,200.357010 1022.100769,224.256546 &#10;&#9;C1022.568848,226.285965 1024.010620,228.090820 1025.000000,230.000000 &#10;&#9;C1025.000000,415.022614 1025.000000,600.045227 1024.610474,785.625854 &#10;&#9;C1023.486450,790.651123 1022.539734,795.095459 1022.053162,799.589478 &#10;&#9;C1019.564087,822.581970 1013.032593,844.482178 1003.691528,865.506470 &#10;&#9;C989.075439,898.403259 967.471558,926.094116 940.129395,949.460083 &#10;&#9;C924.759827,962.594543 908.007751,973.566895 890.148315,982.917236 &#10;&#9;C870.470825,993.219299 849.741516,1000.775635 828.297058,1006.467285 &#10;&#9;C826.749634,1006.878052 825.427124,1008.136047 824.000000,1009.000000 &#10;&#9;C779.644043,1009.000000 735.288086,1009.000000 690.312561,1008.553406 &#10;&#9;C689.692993,933.531616 689.692993,858.956360 689.692993,783.931641 &#10;&#9;C672.204956,788.211731 655.131958,792.242798 638.169128,796.693970 &#10;&#9;C635.488159,797.397522 633.304993,799.998230 630.575195,801.854126 &#10;&#9;C622.007202,811.585754 611.544067,817.875549 599.748901,822.022705 &#10;&#9;C573.336914,831.309326 546.467712,830.880066 519.559326,824.893433 &#10;&#9;C490.312073,818.386414 463.468536,806.535583 442.621979,784.439819 &#10;&#9;C434.557159,775.891663 427.222107,767.481506 415.179504,765.091125 &#10;&#9;C415.024109,765.060303 414.891357,764.926819 414.741730,764.854248 &#10;&#9;C385.129120,750.499207 358.039307,732.288940 332.897095,711.133911 &#10;&#9;C331.273621,709.767883 330.266907,707.668884 329.364197,705.952148 &#10;&#9;C336.935425,708.340210 343.975189,711.330505 351.317810,712.933044 &#10;&#9;C416.960083,727.259949 482.615845,741.531677 548.359863,755.381897 &#10;&#9;C568.287964,759.580200 588.410156,763.182495 608.615845,765.640564 &#10;&#9;C626.315247,767.793762 644.163147,766.288635 661.763000,762.979309 &#10;&#9;C688.740723,757.906555 714.328552,749.142822 737.416443,734.000916 &#10;&#9;C747.296204,727.521484 756.649780,720.333252 763.380859,710.045105 &#10;&#9;C763.255493,709.787720 762.883057,709.613464 762.106323,709.491455 &#10;&#9;C735.320496,714.859070 710.539490,710.463196 687.140625,697.386719 &#10;&#9;C686.109741,696.810669 684.269653,696.688782 683.258301,697.218262 &#10;&#9;C662.857117,707.901062 640.779724,711.490906 618.179443,711.815674 &#10;&#9;C574.424805,712.444580 532.779541,702.544006 493.055267,684.582520 &#10;&#9;C461.838348,670.467834 433.178253,652.474731 411.274231,625.524048 &#10;&#9;C406.785736,620.001404 403.305420,616.596985 396.282074,620.689270 &#10;&#9;C394.528473,621.710999 392.091309,621.747986 389.946625,621.876770 &#10;&#9;C381.820709,622.364990 374.111023,621.179810 369.007202,614.001282 &#10;&#9;C363.908386,606.829834 364.775238,598.919250 368.587372,591.740845 &#10;&#9;C377.845856,574.306580 392.112122,564.024475 412.409607,563.828491 &#10;&#9;C426.583191,563.691589 434.962189,573.032715 431.752045,586.766785 &#10;&#9;C429.658936,595.721985 433.206543,601.559875 438.454590,607.328125 &#10;&#9;C448.814972,618.715332 460.791412,628.210938 473.791321,636.391113 &#10;&#9;C480.827362,640.818481 488.088470,644.888306 495.248077,649.119446 &#10;&#9;C495.596863,647.003357 495.140076,645.826172 494.597443,644.689941 &#10;&#9;C486.941376,628.658997 482.188019,611.895996 480.650085,594.111938 &#10;&#9;C479.415314,579.833801 481.454071,565.960876 484.304443,551.803711 &#10;&#9;C493.772736,517.201111 514.284058,490.931122 543.072144,470.936676 &#10;&#9;C579.636536,445.541260 620.776062,434.997742 664.902832,434.815979 &#10;&#9;C667.124756,434.806824 669.346802,434.814789 672.661499,434.814789 &#10;&#9;C661.719910,423.307068 656.863403,410.583374 656.790771,395.587036 &#10;&#9;C657.676025,382.097198 662.156494,370.619263 671.170532,360.943542 &#10;&#9;C691.366150,339.265411 727.015320,339.275726 747.387634,361.060852 &#10;&#9;C767.952393,383.051788 765.692383,418.966370 742.528503,437.554169 &#10;&#9;C739.786682,439.754272 736.822632,441.677429 733.891907,443.778961 &#10;&#9;C734.410583,444.192291 734.634521,444.498657 734.923157,444.582550 &#10;&#9;C769.460510,454.625000 800.414001,471.105438 826.812500,495.752258 &#10;&#9;C828.939819,497.738434 830.930786,498.297821 833.961975,497.375702 &#10;&#9;C864.760620,488.006500 889.915894,470.418762 908.935120,444.644104 &#10;&#9;C942.515320,399.136566 950.835999,347.784637 941.412476,293.088379 &#10;&#9;C933.928955,249.652542 915.060913,211.469955 885.305603,178.803909 &#10;&#9;C861.512024,152.682770 833.008789,133.798264 799.162048,123.368027 &#10;&#9;C786.629700,119.506042 773.746216,117.658058 761.209045,123.190773 &#10;&#9;C743.273438,131.105820 730.456848,144.504379 722.101624,162.086945 &#10;&#9;C708.931580,189.801605 695.991272,217.625504 682.972534,245.412003 &#10;&#9;C681.613586,248.312653 679.662720,248.978027 677.037048,247.128189 &#10;&#9;C670.650208,242.628525 670.662292,242.605667 665.230286,248.488403 &#10;&#9;C663.761230,250.079330 662.320374,251.696228 660.851929,253.287674 &#10;&#9;C646.392090,268.958099 631.944397,284.639740 617.456970,300.284607 &#10;&#9;C613.653198,304.392334 611.824158,304.284607 608.830261,300.106689 &#10;&#9;C607.574280,298.354095 606.215698,296.675018 604.825073,294.643677 &#10;&#9;C586.125977,271.022400 562.856018,253.767120 535.766846,241.569229 &#10;&#9;C521.076477,234.954361 505.981232,229.503510 489.584412,226.930573 &#10;&#9;C479.188721,225.445663 469.196045,223.564819 459.120850,222.855103 &#10;&#9;C424.241791,220.398132 390.963409,226.606491 359.632690,242.425919 &#10;&#9;C353.673798,245.434677 352.425385,245.135208 348.805878,239.343231 &#10;&#9;C331.184052,211.144608 313.628357,182.904404 295.920441,154.759979 &#10;&#9;C291.856750,148.301300 287.968872,141.521530 282.804779,136.009369 &#10;&#9;C271.946838,124.419624 258.103363,117.281372 242.240250,121.174530 &#10;&#9;C138.342804,146.673279 70.067360,250.661667 88.010460,355.995483 &#10;&#9;C97.004150,408.792297 123.976936,450.527954 168.624756,480.351776 &#10;&#9;C185.527313,491.642334 203.719009,500.406830 223.962234,504.244049 &#10;&#9;C227.205719,504.858826 228.428497,507.006439 227.617477,510.548798 &#10;&#9;C225.171677,521.231506 222.990112,531.974609 220.469025,543.002075 &#10;&#9;C218.959702,549.155090 217.568176,554.977356 216.439453,560.850159 &#10;&#9;C214.279343,572.089111 210.508545,583.350159 210.466812,594.613403 &#10;&#9;C210.023560,714.258240 210.182343,833.905334 210.176056,953.551758 &#10;&#9;C210.175262,968.882263 210.202957,984.212830 210.158752,999.543213 &#10;&#9;C210.149277,1002.829346 212.510345,1006.719604 208.000000,1009.000000 &#10;M799.830078,900.492737 &#10;&#9;C796.681274,896.670044 793.319824,892.997742 790.466797,888.965698 &#10;&#9;C788.868225,886.706299 788.288391,883.748596 786.880005,881.319824 &#10;&#9;C786.384216,880.464905 783.879150,879.725952 783.827454,879.816040 &#10;&#9;C782.569702,882.006226 780.534668,884.353577 780.620667,886.596680 &#10;&#9;C780.861267,892.869751 778.561218,896.435547 772.206543,898.218201 &#10;&#9;C770.334290,898.743469 768.540222,899.821533 766.930786,900.958374 &#10;&#9;C761.685242,904.663635 761.744690,906.290283 767.525940,909.005249 &#10;&#9;C772.721924,911.445312 777.497986,914.208496 780.159912,919.579285 &#10;&#9;C781.190002,921.657776 782.052612,923.824463 783.168274,925.853821 &#10;&#9;C784.327698,927.962769 785.673523,928.634521 787.227722,925.236938 &#10;&#9;C790.770447,916.202881 795.350159,908.126648 806.638367,906.246948 &#10;&#9;C806.391907,905.793335 806.145508,905.339722 805.899048,904.886047 &#10;&#9;C803.873657,903.662292 801.848267,902.438538 799.830078,900.492737 &#10;M884.735413,801.612549 &#10;&#9;C884.666504,801.280823 884.597595,800.949158 884.845703,799.764587 &#10;&#9;C883.852051,796.324463 882.842957,792.888611 881.870544,789.442505 &#10;&#9;C881.298828,787.416443 881.037109,785.259888 880.179993,783.368774 &#10;&#9;C879.195007,781.195679 877.859924,777.704407 876.401001,777.559326 &#10;&#9;C874.045959,777.325134 871.171082,778.957397 869.039612,780.517212 &#10;&#9;C864.205933,784.054565 865.255310,790.485413 862.679382,795.411743 &#10;&#9;C858.598145,803.217041 854.221130,809.441162 846.220947,813.037842 &#10;&#9;C843.374573,814.317566 840.513489,815.620667 837.851257,817.230896 &#10;&#9;C836.449341,818.078857 835.461975,819.612122 834.287415,820.835999 &#10;&#9;C835.559753,822.044739 836.682800,823.488159 838.135925,824.412598 &#10;&#9;C841.023621,826.249695 844.759033,827.209351 846.908875,829.629089 &#10;&#9;C849.273926,832.291138 851.061157,834.517334 855.010925,834.038513 &#10;&#9;C855.917969,833.928528 857.431519,835.337952 857.991821,836.402771 &#10;&#9;C862.565674,845.094727 866.979492,853.870789 872.153503,864.016479 &#10;&#9;C875.378540,861.403015 878.711243,859.716919 880.528748,857.012512 &#10;&#9;C884.024292,851.811218 886.677917,846.042053 889.650818,840.492371 &#10;&#9;C893.355530,833.576660 899.745728,829.716553 906.142212,825.821655 &#10;&#9;C909.078918,824.033447 913.992920,822.329834 914.313049,820.065125 &#10;&#9;C914.978943,815.354980 909.361389,815.407227 906.173401,813.665283 &#10;&#9;C899.126587,809.814575 892.130310,805.871399 884.735413,801.612549 &#10;M493.421204,73.871353 &#10;&#9;C493.274414,73.967873 493.127594,74.064384 492.324036,74.278893 &#10;&#9;C484.486847,80.873459 476.180359,86.996346 468.944794,94.195549 &#10;&#9;C461.739777,101.364304 455.609619,109.613373 449.008179,117.388756 &#10;&#9;C448.622650,117.181747 448.237091,116.974747 447.851532,116.767746 &#10;&#9;C447.851532,113.826584 447.851532,110.885429 447.990326,107.029030 &#10;&#9;C447.990326,89.790779 447.990326,72.552536 447.990326,55.379742 &#10;&#9;C437.930878,59.420685 428.588287,66.146408 419.385681,74.283379 &#10;&#9;C410.609314,83.379936 401.305420,92.030869 393.166412,101.665810 &#10;&#9;C376.233551,121.710747 362.129303,143.613647 353.047607,168.428680 &#10;&#9;C352.318268,170.421494 351.895203,173.250244 352.755890,174.981613 &#10;&#9;C357.694916,184.916946 363.064728,194.638123 367.865784,203.639587 &#10;&#9;C459.421844,177.012863 542.244202,190.569824 616.187622,252.141953 &#10;&#9;C636.154541,237.193130 652.998474,218.464508 667.105774,197.225479 &#10;&#9;C677.332031,181.829483 686.189026,165.708145 692.476990,147.499115 &#10;&#9;C699.039917,128.509048 703.812256,109.208092 701.002319,88.910561 &#10;&#9;C699.202393,75.908348 700.702637,78.092545 689.193054,75.191132 &#10;&#9;C668.458130,69.964096 647.276550,69.959198 626.158691,72.229675 &#10;&#9;C613.815674,73.556740 601.409180,75.207039 590.170410,81.293030 &#10;&#9;C588.872131,81.996109 587.117004,81.855675 584.418091,82.293968 &#10;&#9;C588.116760,65.954590 594.564880,51.635834 601.088623,36.903030 &#10;&#9;C597.946838,36.903030 595.441772,36.726921 592.968140,36.930828 &#10;&#9;C572.763123,38.596375 553.209961,43.398018 534.859924,51.783398 &#10;&#9;C520.771912,58.221184 507.515350,66.478424 493.997681,73.873375 &#10;&#9;C493.997681,73.873375 493.938110,73.768097 493.421204,73.871353 &#10;M614.591064,677.991882 &#10;&#9;C641.111206,683.214233 664.687256,676.525635 685.562073,659.918213 &#10;&#9;C689.501038,656.784485 692.052795,656.376648 696.335815,659.327148 &#10;&#9;C727.960571,681.113037 767.781250,682.192566 797.475647,661.147278 &#10;&#9;C827.061157,640.179077 838.906555,610.334839 836.076782,574.799377 &#10;&#9;C833.284851,539.738037 817.005737,511.815857 788.068848,491.760712 &#10;&#9;C772.156799,480.732697 754.448608,474.743988 734.713379,475.173248 &#10;&#9;C706.571289,475.785309 678.418030,475.861603 650.272156,476.329132 &#10;&#9;C635.625977,476.572388 621.239746,477.785095 607.345459,483.596008 &#10;&#9;C595.677063,488.476013 584.713013,494.163025 575.636353,502.937775 &#10;&#9;C550.022644,527.699707 539.423828,558.047668 542.935181,593.353333 &#10;&#9;C546.845154,632.667358 573.533997,668.723938 614.591064,677.991882 &#10;M175.109467,772.500000 &#10;&#9;C175.109467,741.551514 175.109467,710.602966 175.109467,678.629944 &#10;&#9;C155.711014,709.891846 134.042877,737.168030 102.887680,757.534363 &#10;&#9;C104.591957,758.820618 106.394249,760.295044 108.307976,761.606995 &#10;&#9;C124.089928,772.426514 141.446518,778.992065 160.525024,780.948975 &#10;&#9;C162.806976,781.183044 165.042892,781.865967 167.300140,782.340820 &#10;&#9;C167.374176,782.878479 167.448227,783.416138 167.522263,783.953735 &#10;&#9;C152.430161,798.014160 134.876724,808.413635 115.143349,817.347168 &#10;&#9;C132.089981,837.395325 151.143555,853.134460 175.110764,864.405701 &#10;&#9;C175.110764,833.086792 175.110764,803.293396 175.109467,772.500000 &#10;M82.240494,552.722717 &#10;&#9;C80.558060,553.547852 78.875626,554.372986 76.696541,555.441711 &#10;&#9;C83.805962,558.450806 90.108582,561.465271 96.659950,563.773804 &#10;&#9;C101.307907,565.411560 104.037033,568.250183 105.857735,572.702698 &#10;&#9;C108.831902,579.976074 112.225182,587.078186 115.874199,595.217285 &#10;&#9;C119.483803,586.880981 123.034996,579.614136 125.765160,572.050903 &#10;&#9;C127.634270,566.872986 130.773911,563.901123 135.837509,562.114624 &#10;&#9;C141.777542,560.018921 147.516556,557.353516 153.952499,554.682068 &#10;&#9;C148.168686,551.949646 143.393143,549.104553 138.240936,547.394043 &#10;&#9;C130.003387,544.659241 125.095375,539.346802 122.248299,531.266296 &#10;&#9;C120.088585,525.136658 116.912292,519.365173 113.690102,512.349487 &#10;&#9;C110.895630,521.754761 108.724617,529.899841 105.963257,537.839661 &#10;&#9;C105.145248,540.191772 103.051651,542.671936 100.870590,543.867615 &#10;&#9;C95.069008,547.047974 88.901337,549.560486 82.240494,552.722717 &#10;M907.577332,628.997620 &#10;&#9;C911.019104,636.543762 914.387878,644.124817 917.965820,651.605835 &#10;&#9;C918.663330,653.064270 920.716431,655.377319 921.212097,655.160889 &#10;&#9;C923.042786,654.361633 925.107056,652.972900 925.950317,651.250854 &#10;&#9;C928.336609,646.377991 930.361145,641.300476 932.159912,636.174316 &#10;&#9;C934.494080,629.522095 938.178467,624.648682 945.439514,622.727295 &#10;&#9;C949.714783,621.596008 953.730164,619.444641 957.815857,617.646118 &#10;&#9;C961.170532,616.169373 961.700439,613.810181 958.690002,611.678589 &#10;&#9;C955.748291,609.595459 952.517761,607.640259 949.119324,606.534729 &#10;&#9;C938.789856,603.174744 931.706970,596.726257 928.105225,586.428101 &#10;&#9;C926.899414,582.980408 925.591919,579.536316 923.931152,576.295349 &#10;&#9;C923.253967,574.973755 921.146790,573.118835 920.335266,573.395935 &#10;&#9;C918.653992,573.969849 916.766357,575.548706 916.102661,577.178284 &#10;&#9;C914.420288,581.308838 913.140320,585.641846 912.110779,589.991211 &#10;&#9;C910.281311,597.719360 905.967224,602.669434 898.134460,604.937866 &#10;&#9;C893.915771,606.159729 889.964600,608.474792 886.093628,610.653564 &#10;&#9;C884.239685,611.696960 882.852966,613.570312 881.254639,615.067749 &#10;&#9;C883.125977,616.156738 884.948059,617.343140 886.877502,618.317139 &#10;&#9;C893.608826,621.714966 900.377319,625.039246 907.577332,628.997620 &#10;M904.286499,531.249451 &#10;&#9;C905.730286,534.227173 907.174011,537.204956 908.617798,540.182678 &#10;&#9;C911.497742,532.938904 915.071533,527.351868 923.114624,525.312317 &#10;&#9;C915.055359,523.008667 910.972290,517.518066 908.239014,509.888550 &#10;&#9;C907.452271,518.773132 902.010132,522.996643 893.504639,525.261414 &#10;&#9;C897.759460,527.465881 900.804626,529.043640 904.286499,531.249451 &#10;M75.091187,630.308411 &#10;&#9;C74.244926,628.451782 73.398666,626.595154 72.552399,624.738525 &#10;&#9;C71.133636,632.807434 66.345024,637.284973 58.149475,639.126221 &#10;&#9;C67.799484,644.012146 67.799484,644.012146 72.907036,653.943787 &#10;&#9;C75.513931,647.186707 77.814323,640.505737 86.257103,639.417053 &#10;&#9;C83.951561,637.869934 81.700584,637.170471 79.910370,635.847473 &#10;&#9;C78.168243,634.559998 76.897980,632.634033 75.091187,630.308411 &#10;M924.159424,719.359619 &#10;&#9;C925.258423,721.663025 926.357483,723.966431 927.529968,726.423706 &#10;&#9;C934.843689,715.324097 934.843689,715.324097 942.017700,711.995483 &#10;&#9;C933.595215,710.244568 929.838135,704.605347 927.026245,697.417053 &#10;&#9;C926.090515,705.749512 921.403198,710.338989 913.950378,711.917542 &#10;&#9;C917.559875,714.339172 920.757935,716.484802 924.159424,719.359619 &#10;z" transform="matrix(1, 0, 0, 1, -4.547473508864641e-13, 0)" style="fill: rgb(135, 126, 255);"/>
  <path opacity="1.000000" stroke="none" d="&#10;M328.973236,705.910828 &#10;&#9;C330.266907,707.668884 331.273621,709.767883 332.897095,711.133911 &#10;&#9;C358.039307,732.288940 385.129120,750.499207 414.741730,764.854248 &#10;&#9;C414.891357,764.926819 415.024109,765.060303 415.179504,765.091125 &#10;&#9;C427.222107,767.481506 434.557159,775.891663 442.621979,784.439819 &#10;&#9;C463.468536,806.535583 490.312073,818.386414 519.559326,824.893433 &#10;&#9;C546.467712,830.880066 573.336914,831.309326 599.748901,822.022705 &#10;&#9;C611.544067,817.875549 622.007202,811.585754 630.616333,802.251343 &#10;&#9;C629.035889,807.092163 627.468384,811.870117 625.099304,816.210632 &#10;&#9;C610.638916,842.704163 588.572388,861.312378 562.366821,875.265259 &#10;&#9;C526.634399,894.290710 488.587677,902.364258 448.136200,898.092224 &#10;&#9;C429.710541,896.146240 412.263977,891.110229 396.229553,881.633850 &#10;&#9;C393.315155,879.911377 390.452026,878.102112 386.978668,875.973450 &#10;&#9;C386.628479,879.788086 386.188141,882.744324 386.112427,885.709900 &#10;&#9;C385.640808,904.185425 385.289307,922.664062 384.823792,941.139771 &#10;&#9;C384.253906,963.760803 383.611206,986.380005 383.000000,1009.000000 &#10;&#9;C324.979095,1009.000000 266.958221,1009.000000 208.468658,1009.000000 &#10;&#9;C212.510345,1006.719604 210.149277,1002.829346 210.158752,999.543213 &#10;&#9;C210.202957,984.212830 210.175262,968.882263 210.176056,953.551758 &#10;&#9;C210.182343,833.905334 210.023560,714.258240 210.466812,594.613403 &#10;&#9;C210.508545,583.350159 214.279343,572.089111 216.439453,560.850159 &#10;&#9;C217.568176,554.977356 218.959702,549.155090 220.586411,543.455688 &#10;&#9;C221.078568,545.921021 221.068771,548.260681 221.378296,550.557251 &#10;&#9;C224.059235,570.448853 229.738342,589.479553 238.074677,607.716125 &#10;&#9;C252.400299,639.054749 272.335785,666.154236 299.713470,687.297668 &#10;&#9;C308.313721,693.939453 317.941376,699.250977 327.310059,705.392090 &#10;&#9;C328.043823,705.734070 328.566315,705.855286 329.043945,705.988159 &#10;&#9;C328.999054,705.999878 328.973236,705.910828 328.973236,705.910828 &#10;M281.043488,947.813049 &#10;&#9;C291.027069,948.764954 297.824036,943.748291 303.040253,935.935303 &#10;&#9;C314.859802,918.231323 314.715363,887.007446 302.598236,869.532104 &#10;&#9;C298.222443,863.221313 292.809265,858.113037 284.444550,857.873596 &#10;&#9;C273.180450,857.551086 266.596130,864.460144 262.105957,873.455688 &#10;&#9;C254.257645,889.179077 253.698959,905.716858 258.605865,922.419800 &#10;&#9;C262.001831,933.979553 267.461456,944.006958 281.043488,947.813049 &#10;M252.014786,752.097168 &#10;&#9;C242.809052,749.430176 234.644394,751.998047 230.045609,759.006592 &#10;&#9;C225.572739,765.823242 225.985703,774.452271 231.084976,780.724670 &#10;&#9;C235.703171,786.405334 243.339340,788.801270 250.386841,786.780884 &#10;&#9;C257.600739,784.712769 262.685059,778.626343 263.625000,770.933533 &#10;&#9;C264.533966,763.494141 260.609192,756.818115 252.014786,752.097168 &#10;z" transform="matrix(1, 0, 0, 1, -4.547473508864641e-13, 0)" style="fill: rgb(212, 209, 255);"/>
  <path opacity="1.000000" stroke="none" d="&#10;M383.468658,1009.000000 &#10;&#9;C383.611206,986.380005 384.253906,963.760803 384.823792,941.139771 &#10;&#9;C385.289307,922.664062 385.640808,904.185425 386.112427,885.709900 &#10;&#9;C386.188141,882.744324 386.628479,879.788086 386.978668,875.973450 &#10;&#9;C390.452026,878.102112 393.315155,879.911377 396.229553,881.633850 &#10;&#9;C412.263977,891.110229 429.710541,896.146240 448.136200,898.092224 &#10;&#9;C488.587677,902.364258 526.634399,894.290710 562.366821,875.265259 &#10;&#9;C588.572388,861.312378 610.638916,842.704163 625.099304,816.210632 &#10;&#9;C627.468384,811.870117 629.035889,807.092163 630.932739,802.119141 &#10;&#9;C633.304993,799.998230 635.488159,797.397522 638.169128,796.693970 &#10;&#9;C655.131958,792.242798 672.204956,788.211731 689.692993,783.931641 &#10;&#9;C689.692993,858.956360 689.692993,933.531616 689.846497,1008.553406 &#10;&#9;C587.979126,1009.000000 485.958221,1009.000000 383.468658,1009.000000 &#10;z" transform="matrix(1, 0, 0, 1, -4.547473508864641e-13, 0)" style="fill: rgb(255, 255, 255);"/>
  <path opacity="1.000000" stroke="none" d="&#10;M327.098816,705.171387 &#10;&#9;C317.941376,699.250977 308.313721,693.939453 299.713470,687.297668 &#10;&#9;C272.335785,666.154236 252.400299,639.054749 238.074677,607.716125 &#10;&#9;C229.738342,589.479553 224.059235,570.448853 221.378296,550.557251 &#10;&#9;C221.068771,548.260681 221.078568,545.921021 220.822906,543.147827 &#10;&#9;C222.990112,531.974609 225.171677,521.231506 227.617477,510.548798 &#10;&#9;C228.428497,507.006439 227.205719,504.858826 223.962234,504.244049 &#10;&#9;C203.719009,500.406830 185.527313,491.642334 168.624756,480.351776 &#10;&#9;C123.976936,450.527954 97.004150,408.792297 88.010460,355.995483 &#10;&#9;C70.067360,250.661667 138.342804,146.673279 242.240250,121.174530 &#10;&#9;C258.103363,117.281372 271.946838,124.419624 282.804779,136.009369 &#10;&#9;C287.968872,141.521530 291.856750,148.301300 295.920441,154.759979 &#10;&#9;C313.628357,182.904404 331.184052,211.144608 348.805878,239.343231 &#10;&#9;C352.425385,245.135208 353.673798,245.434677 359.632690,242.425919 &#10;&#9;C390.963409,226.606491 424.241791,220.398132 459.120850,222.855103 &#10;&#9;C469.196045,223.564819 479.188721,225.445663 489.808899,227.196198 &#10;&#9;C514.929199,238.536331 536.715210,253.495911 555.780212,272.389282 &#10;&#9;C567.263000,283.768768 578.061340,295.645905 583.557983,311.362183 &#10;&#9;C584.078552,312.850708 586.348267,314.408142 587.969849,314.608734 &#10;&#9;C589.197083,314.760529 590.975708,313.031555 592.007568,311.739258 &#10;&#9;C596.407898,306.228149 600.621826,300.568176 604.903809,294.962524 &#10;&#9;C606.215698,296.675018 607.574280,298.354095 608.830261,300.106689 &#10;&#9;C611.824158,304.284607 613.653198,304.392334 617.456970,300.284607 &#10;&#9;C631.944397,284.639740 646.392090,268.958099 660.851929,253.287674 &#10;&#9;C662.320374,251.696228 663.761230,250.079330 665.230286,248.488403 &#10;&#9;C670.662292,242.605667 670.650208,242.628525 677.037048,247.128189 &#10;&#9;C679.662720,248.978027 681.613586,248.312653 682.972534,245.412003 &#10;&#9;C695.991272,217.625504 708.931580,189.801605 722.101624,162.086945 &#10;&#9;C730.456848,144.504379 743.273438,131.105820 761.209045,123.190773 &#10;&#9;C773.746216,117.658058 786.629700,119.506042 799.162048,123.368027 &#10;&#9;C833.008789,133.798264 861.512024,152.682770 885.305603,178.803909 &#10;&#9;C915.060913,211.469955 933.928955,249.652542 941.412476,293.088379 &#10;&#9;C950.835999,347.784637 942.515320,399.136566 908.935120,444.644104 &#10;&#9;C889.915894,470.418762 864.760620,488.006500 833.961975,497.375702 &#10;&#9;C830.930786,498.297821 828.939819,497.738434 826.812500,495.752258 &#10;&#9;C800.414001,471.105438 769.460510,454.625000 734.923157,444.582550 &#10;&#9;C734.634521,444.498657 734.410583,444.192291 733.891907,443.778961 &#10;&#9;C736.822632,441.677429 739.786682,439.754272 742.528503,437.554169 &#10;&#9;C765.692383,418.966370 767.952393,383.051788 747.387634,361.060852 &#10;&#9;C727.015320,339.275726 691.366150,339.265411 671.170532,360.943542 &#10;&#9;C662.156494,370.619263 657.676025,382.097198 656.473206,395.488464 &#10;&#9;C655.219055,394.890472 654.193237,394.053009 653.475037,393.004791 &#10;&#9;C645.918152,381.975861 637.431030,371.794556 626.942200,363.391296 &#10;&#9;C615.536682,354.253693 602.972595,347.707458 588.091125,347.061615 &#10;&#9;C570.600952,346.302521 556.048218,353.481903 543.534668,365.047363 &#10;&#9;C527.560913,379.810822 517.354187,398.420959 509.074677,418.229736 &#10;&#9;C499.214752,441.819641 492.772430,466.427795 489.318237,491.641205 &#10;&#9;C486.577301,511.647858 485.727905,531.913635 484.038635,552.064392 &#10;&#9;C481.454071,565.960876 479.415314,579.833801 480.650085,594.111938 &#10;&#9;C482.188019,611.895996 486.941376,628.658997 494.597443,644.689941 &#10;&#9;C495.140076,645.826172 495.596863,647.003357 495.248077,649.119446 &#10;&#9;C488.088470,644.888306 480.827362,640.818481 473.791321,636.391113 &#10;&#9;C460.791412,628.210938 448.814972,618.715332 438.454590,607.328125 &#10;&#9;C433.206543,601.559875 429.658936,595.721985 431.752045,586.766785 &#10;&#9;C434.962189,573.032715 426.583191,563.691589 412.409607,563.828491 &#10;&#9;C392.112122,564.024475 377.845856,574.306580 368.587372,591.740845 &#10;&#9;C364.775238,598.919250 363.908386,606.829834 369.007202,614.001282 &#10;&#9;C374.111023,621.179810 381.820709,622.364990 389.946625,621.876770 &#10;&#9;C392.091309,621.747986 394.528473,621.710999 396.282074,620.689270 &#10;&#9;C403.305420,616.596985 406.785736,620.001404 411.274231,625.524048 &#10;&#9;C433.178253,652.474731 461.838348,670.467834 493.055267,684.582520 &#10;&#9;C532.779541,702.544006 574.424805,712.444580 618.179443,711.815674 &#10;&#9;C640.779724,711.490906 662.857117,707.901062 683.258301,697.218262 &#10;&#9;C684.269653,696.688782 686.109741,696.810669 687.140625,697.386719 &#10;&#9;C710.539490,710.463196 735.320496,714.859070 762.255859,709.669312 &#10;&#9;C762.809692,709.794922 763.133667,710.128174 763.133667,710.128174 &#10;&#9;C756.649780,720.333252 747.296204,727.521484 737.416443,734.000916 &#10;&#9;C714.328552,749.142822 688.740723,757.906555 661.763000,762.979309 &#10;&#9;C644.163147,766.288635 626.315247,767.793762 608.615845,765.640564 &#10;&#9;C588.410156,763.182495 568.287964,759.580200 548.359863,755.381897 &#10;&#9;C482.615845,741.531677 416.960083,727.259949 351.317810,712.933044 &#10;&#9;C343.975189,711.330505 336.935425,708.340210 329.364197,705.952148 &#10;&#9;C328.973236,705.910828 328.999054,705.999878 328.885590,705.743835 &#10;&#9;C328.214325,705.382324 327.656555,705.276917 327.098816,705.171387 &#10;M200.377884,212.882523 &#10;&#9;C166.683548,250.310760 148.820343,293.417175 155.903305,344.310516 &#10;&#9;C162.277466,390.110992 187.716553,422.200745 230.131866,440.723297 &#10;&#9;C234.074951,442.445221 235.939346,441.058868 236.005676,436.571289 &#10;&#9;C236.064743,432.574402 235.705368,428.529785 236.190109,424.587280 &#10;&#9;C240.484741,389.657593 251.964661,357.186798 270.158997,327.102112 &#10;&#9;C275.304871,318.593262 281.604248,310.872467 291.039246,307.016785 &#10;&#9;C295.789001,305.075775 296.802643,302.233917 296.092010,297.952484 &#10;&#9;C295.797729,296.179321 295.143555,294.441681 294.475555,292.758331 &#10;&#9;C280.893555,258.530487 267.334259,224.293304 253.560440,190.142700 &#10;&#9;C252.747147,188.126221 250.375092,185.780136 248.368301,185.376160 &#10;&#9;C241.262100,183.945557 233.924179,183.840546 227.955307,188.802536 &#10;&#9;C218.754227,196.451538 209.882278,204.496475 200.377884,212.882523 &#10;M801.134827,440.304474 &#10;&#9;C803.118713,440.032806 805.506653,440.377472 807.018921,439.386261 &#10;&#9;C814.933960,434.198242 823.106873,429.240540 830.312744,423.162445 &#10;&#9;C859.174194,398.818115 875.617065,367.977295 876.988708,329.860779 &#10;&#9;C878.122437,298.357269 868.213745,270.031250 851.044434,244.008102 &#10;&#9;C835.517517,220.474442 815.286438,201.692429 791.849609,186.270416 &#10;&#9;C784.385986,181.359161 775.244446,184.698807 772.078979,193.129944 &#10;&#9;C771.554443,194.526749 771.084656,195.944061 770.564148,197.342422 &#10;&#9;C759.290588,227.630676 748.052551,257.932343 736.686157,288.185730 &#10;&#9;C735.290222,291.901367 735.059448,294.582214 738.074646,298.024689 &#10;&#9;C747.695557,309.009033 757.863708,319.756775 765.827271,331.902771 &#10;&#9;C786.319458,363.157562 798.767212,397.313507 798.843445,435.270905 &#10;&#9;C798.846497,436.784943 799.907288,438.296875 801.134827,440.304474 &#10;M399.354248,348.794586 &#10;&#9;C373.652740,359.663086 359.077057,379.185181 357.229279,406.798157 &#10;&#9;C354.489441,447.741211 387.229156,475.853729 419.935791,477.503540 &#10;&#9;C465.103729,479.781830 499.707703,437.821014 488.391144,394.054321 &#10;&#9;C478.905304,357.368103 438.178864,333.799744 399.354248,348.794586 &#10;z" transform="matrix(1, 0, 0, 1, -4.547473508864641e-13, 0)" style="fill: rgb(255, 255, 255);"/>
  <path opacity="1.000000" stroke="none" d="&#10;M692.016235,148.067673 &#10;&#9;C686.189026,165.708145 677.332031,181.829483 667.105774,197.225479 &#10;&#9;C652.998474,218.464508 636.154541,237.193130 616.187622,252.141953 &#10;&#9;C542.244202,190.569824 459.421844,177.012863 367.865784,203.639587 &#10;&#9;C363.064728,194.638123 357.694916,184.916946 352.755890,174.981613 &#10;&#9;C351.895203,173.250244 352.318268,170.421494 353.047607,168.428680 &#10;&#9;C362.129303,143.613647 376.233551,121.710747 393.166412,101.665810 &#10;&#9;C401.305420,92.030869 410.609314,83.379936 419.922241,74.420212 &#10;&#9;C425.313904,78.241013 431.175995,81.143738 434.784607,85.794853 &#10;&#9;C439.997101,92.513184 443.575745,100.499161 447.851532,107.944275 &#10;&#9;C447.851532,110.885429 447.851532,113.826584 447.851532,116.767746 &#10;&#9;C448.237091,116.974747 448.622650,117.181747 449.008179,117.388756 &#10;&#9;C455.609619,109.613373 461.739777,101.364304 468.944794,94.195549 &#10;&#9;C476.180359,86.996346 484.486847,80.873459 492.799255,74.357422 &#10;&#9;C493.495667,74.213333 493.716888,73.990715 493.938110,73.768097 &#10;&#9;C493.938110,73.768097 493.997681,73.873375 494.335632,73.957909 &#10;&#9;C506.083221,70.520638 517.332886,66.295731 528.942871,63.654793 &#10;&#9;C543.487061,60.346405 558.275146,60.192131 572.711121,65.023743 &#10;&#9;C580.526672,67.639572 580.914368,68.558289 579.342102,76.659836 &#10;&#9;C578.451416,81.249077 577.832275,85.891006 577.146851,90.160393 &#10;&#9;C585.570740,90.160393 593.435120,88.946373 600.792358,90.364304 &#10;&#9;C638.620850,97.654839 671.757690,112.803947 692.016235,148.067673 &#10;z" transform="matrix(1, 0, 0, 1, -4.547473508864641e-13, 0)" style="fill: rgb(212, 209, 255);"/>
  <path opacity="1.000000" stroke="none" d="&#10;M614.172363,677.926819 &#10;&#9;C573.533997,668.723938 546.845154,632.667358 542.935181,593.353333 &#10;&#9;C539.423828,558.047668 550.022644,527.699707 575.636353,502.937775 &#10;&#9;C584.713013,494.163025 595.677063,488.476013 607.345459,483.596008 &#10;&#9;C621.239746,477.785095 635.625977,476.572388 650.272156,476.329132 &#10;&#9;C678.418030,475.861603 706.571289,475.785309 734.713379,475.173248 &#10;&#9;C754.448608,474.743988 772.156799,480.732697 788.068848,491.760712 &#10;&#9;C817.005737,511.815857 833.284851,539.738037 836.076782,574.799377 &#10;&#9;C838.906555,610.334839 827.061157,640.179077 797.475647,661.147278 &#10;&#9;C767.781250,682.192566 727.960571,681.113037 696.335815,659.327148 &#10;&#9;C692.052795,656.376648 689.501038,656.784485 685.562073,659.918213 &#10;&#9;C664.687256,676.525635 641.111206,683.214233 614.172363,677.926819 &#10;M590.237061,548.923340 &#10;&#9;C599.639343,536.162354 620.794189,529.631531 638.420776,534.048340 &#10;&#9;C661.549072,539.843689 677.201721,563.886169 672.972473,587.369995 &#10;&#9;C671.822144,593.757507 670.412903,600.065308 673.161438,606.354431 &#10;&#9;C680.249084,622.571960 699.680969,625.683594 713.688660,619.019958 &#10;&#9;C723.313171,614.441406 729.252869,604.580383 727.892395,596.393066 &#10;&#9;C725.565857,582.391907 726.747192,568.924316 733.816040,556.305359 &#10;&#9;C747.144714,532.511475 773.262390,524.758484 796.362732,541.422913 &#10;&#9;C800.202759,544.193054 802.803162,548.681580 805.160095,552.129639 &#10;&#9;C796.026917,549.424805 787.501953,551.018494 779.389893,555.717285 &#10;&#9;C763.129822,565.135620 751.361755,578.080933 747.449585,596.983154 &#10;&#9;C745.468262,606.556152 749.152039,615.170837 756.407349,618.950012 &#10;&#9;C769.392578,625.713928 783.164368,629.884766 797.790649,630.805054 &#10;&#9;C801.715881,631.052002 805.791077,630.582764 809.625977,629.698730 &#10;&#9;C810.982666,629.385925 812.182190,626.966980 812.700073,625.278564 &#10;&#9;C812.862732,624.748535 810.543884,622.627808 809.399109,622.658508 &#10;&#9;C800.912964,622.886292 796.844666,616.645325 791.504517,611.706787 &#10;&#9;C804.883423,600.738770 814.630249,588.281433 817.209839,571.066650 &#10;&#9;C820.660034,570.808411 822.851318,569.096252 821.627869,565.559937 &#10;&#9;C818.386658,556.190979 816.120972,546.142761 811.089050,537.799011 &#10;&#9;C795.732849,512.335632 773.384644,497.665070 742.705688,498.041565 &#10;&#9;C728.585327,498.214813 714.469055,498.811432 700.348938,498.902679 &#10;&#9;C676.882568,499.054321 653.414490,499.004547 629.947449,498.932495 &#10;&#9;C621.021118,498.905090 612.828369,501.423218 605.427246,506.123535 &#10;&#9;C581.068176,521.593567 569.610168,544.061279 569.971863,572.746582 &#10;&#9;C570.038147,578.006287 570.562134,578.352417 576.185791,577.709595 &#10;&#9;C579.748352,591.335571 588.315308,601.378174 600.770142,610.476868 &#10;&#9;C592.720642,615.301208 585.698792,619.923889 578.264221,623.743225 &#10;&#9;C575.624207,625.099609 573.016968,626.111938 573.847534,629.086243 &#10;&#9;C574.258606,630.558105 577.152954,632.175415 579.004700,632.278809 &#10;&#9;C602.391907,633.584778 623.721619,627.443604 642.675537,613.634766 &#10;&#9;C647.781921,609.914612 650.005493,604.393188 650.288269,598.048157 &#10;&#9;C650.946655,583.280762 643.758484,572.161499 633.342773,562.943848 &#10;&#9;C621.043030,552.058838 607.141724,545.346252 590.237061,548.923340 &#10;z" transform="matrix(1, 0, 0, 1, -4.547473508864641e-13, 0)" style="fill: rgb(212, 209, 255);"/>
  <path opacity="1.000000" stroke="none" d="&#10;M484.304443,551.803711 &#10;&#9;C485.727905,531.913635 486.577301,511.647858 489.318237,491.641205 &#10;&#9;C492.772430,466.427795 499.214752,441.819641 509.074677,418.229736 &#10;&#9;C517.354187,398.420959 527.560913,379.810822 543.534668,365.047363 &#10;&#9;C556.048218,353.481903 570.600952,346.302521 588.091125,347.061615 &#10;&#9;C602.972595,347.707458 615.536682,354.253693 626.942200,363.391296 &#10;&#9;C637.431030,371.794556 645.918152,381.975861 653.475037,393.004791 &#10;&#9;C654.193237,394.053009 655.219055,394.890472 656.419678,395.924316 &#10;&#9;C656.863403,410.583374 661.719910,423.307068 672.661499,434.814789 &#10;&#9;C669.346802,434.814789 667.124756,434.806824 664.902832,434.815979 &#10;&#9;C620.776062,434.997742 579.636536,445.541260 543.072144,470.936676 &#10;&#9;C514.284058,490.931122 493.772736,517.201111 484.304443,551.803711 &#10;z" transform="matrix(1, 0, 0, 1, -4.547473508864641e-13, 0)" style="fill: rgb(212, 209, 255);"/>
  <path opacity="1.000000" stroke="none" d="&#10;M175.110107,773.000000 &#10;&#9;C175.110764,803.293396 175.110764,833.086792 175.110764,864.405701 &#10;&#9;C151.143555,853.134460 132.089981,837.395325 115.143349,817.347168 &#10;&#9;C134.876724,808.413635 152.430161,798.014160 167.522263,783.953735 &#10;&#9;C167.448227,783.416138 167.374176,782.878479 167.300140,782.340820 &#10;&#9;C165.042892,781.865967 162.806976,781.183044 160.525024,780.948975 &#10;&#9;C141.446518,778.992065 124.089928,772.426514 108.307976,761.606995 &#10;&#9;C106.394249,760.295044 104.591957,758.820618 102.887680,757.534363 &#10;&#9;C134.042877,737.168030 155.711014,709.891846 175.109467,678.629944 &#10;&#9;C175.109467,710.602966 175.109467,741.551514 175.110107,773.000000 &#10;z" transform="matrix(1, 0, 0, 1, -4.547473508864641e-13, 0)" style="fill: rgb(212, 209, 255);"/>
  <path opacity="1.000000" stroke="none" d="&#10;M692.246582,147.783386 &#10;&#9;C671.757690,112.803947 638.620850,97.654839 600.792358,90.364304 &#10;&#9;C593.435120,88.946373 585.570740,90.160393 577.146851,90.160393 &#10;&#9;C577.832275,85.891006 578.451416,81.249077 579.342102,76.659836 &#10;&#9;C580.914368,68.558289 580.526672,67.639572 572.711121,65.023743 &#10;&#9;C558.275146,60.192131 543.487061,60.346405 528.942871,63.654793 &#10;&#9;C517.332886,66.295731 506.083221,70.520638 494.281311,73.984482 &#10;&#9;C507.515350,66.478424 520.771912,58.221184 534.859924,51.783398 &#10;&#9;C553.209961,43.398018 572.763123,38.596375 592.968140,36.930828 &#10;&#9;C595.441772,36.726921 597.946838,36.903030 601.088623,36.903030 &#10;&#9;C594.564880,51.635834 588.116760,65.954590 584.418091,82.293968 &#10;&#9;C587.117004,81.855675 588.872131,81.996109 590.170410,81.293030 &#10;&#9;C601.409180,75.207039 613.815674,73.556740 626.158691,72.229675 &#10;&#9;C647.276550,69.959198 668.458130,69.964096 689.193054,75.191132 &#10;&#9;C700.702637,78.092545 699.202393,75.908348 701.002319,88.910561 &#10;&#9;C703.812256,109.208092 699.039917,128.509048 692.246582,147.783386 &#10;z" transform="matrix(1, 0, 0, 1, -4.547473508864641e-13, 0)" style="fill: rgb(255, 255, 255);"/>
  <path opacity="1.000000" stroke="none" d="&#10;M82.559875,552.530640 &#10;&#9;C88.901337,549.560486 95.069008,547.047974 100.870590,543.867615 &#10;&#9;C103.051651,542.671936 105.145248,540.191772 105.963257,537.839661 &#10;&#9;C108.724617,529.899841 110.895630,521.754761 113.690102,512.349487 &#10;&#9;C116.912292,519.365173 120.088585,525.136658 122.248299,531.266296 &#10;&#9;C125.095375,539.346802 130.003387,544.659241 138.240936,547.394043 &#10;&#9;C143.393143,549.104553 148.168686,551.949646 153.952499,554.682068 &#10;&#9;C147.516556,557.353516 141.777542,560.018921 135.837509,562.114624 &#10;&#9;C130.773911,563.901123 127.634270,566.872986 125.765160,572.050903 &#10;&#9;C123.034996,579.614136 119.483803,586.880981 115.874199,595.217285 &#10;&#9;C112.225182,587.078186 108.831902,579.976074 105.857735,572.702698 &#10;&#9;C104.037033,568.250183 101.307907,565.411560 96.659950,563.773804 &#10;&#9;C90.108582,561.465271 83.805962,558.450806 76.696541,555.441711 &#10;&#9;C78.875626,554.372986 80.558060,553.547852 82.559875,552.530640 &#10;z" transform="matrix(1, 0, 0, 1, -4.547473508864641e-13, 0)" style="fill: rgb(255, 255, 255);"/>
  <path opacity="1.000000" stroke="none" d="&#10;M604.825073,294.643677 &#10;&#9;C600.621826,300.568176 596.407898,306.228149 592.007568,311.739258 &#10;&#9;C590.975708,313.031555 589.197083,314.760529 587.969849,314.608734 &#10;&#9;C586.348267,314.408142 584.078552,312.850708 583.557983,311.362183 &#10;&#9;C578.061340,295.645905 567.263000,283.768768 555.780212,272.389282 &#10;&#9;C536.715210,253.495911 514.929199,238.536331 490.174072,227.337173 &#10;&#9;C505.981232,229.503510 521.076477,234.954361 535.766846,241.569229 &#10;&#9;C562.856018,253.767120 586.125977,271.022400 604.825073,294.643677 &#10;z" transform="matrix(1, 0, 0, 1, -4.547473508864641e-13, 0)" style="fill: rgb(212, 209, 255);"/>
  <path opacity="1.000000" stroke="none" d="&#10;M884.528687,800.617432 &#10;&#9;C884.597595,800.949158 884.666504,801.280823 884.836975,802.144714 &#10;&#9;C887.115112,805.002686 888.973633,807.800415 891.548279,809.535645 &#10;&#9;C894.813843,811.736755 898.698853,813.000854 902.245667,814.808350 &#10;&#9;C905.174194,816.300659 907.999329,817.995789 910.870300,819.601074 &#10;&#9;C910.761719,820.139404 910.653198,820.677795 910.544617,821.216187 &#10;&#9;C905.567505,823.350952 900.474854,825.258118 895.655640,827.704163 &#10;&#9;C892.664307,829.222412 889.045532,830.969543 887.535095,833.645203 &#10;&#9;C884.049805,839.819397 881.730286,846.645508 878.817444,853.153320 &#10;&#9;C878.094971,854.767456 876.913696,856.176147 875.184265,858.855103 &#10;&#9;C871.603516,851.018433 868.586121,844.613770 865.748474,838.130493 &#10;&#9;C864.021240,834.184143 861.828979,831.153870 857.412537,829.565186 &#10;&#9;C851.130188,827.305237 845.128113,824.266235 838.043884,821.134644 &#10;&#9;C840.317017,819.604614 841.431396,818.641479 842.713379,818.029785 &#10;&#9;C847.359131,815.813049 852.012817,813.599487 856.755493,811.603516 &#10;&#9;C861.513062,809.601135 865.463867,807.204407 866.674316,801.514893 &#10;&#9;C867.842407,796.024475 869.658142,790.661438 871.403198,785.312134 &#10;&#9;C871.808289,784.070557 873.081299,783.112183 873.954956,782.023560 &#10;&#9;C874.800354,782.924927 875.892944,783.695801 876.449341,784.749756 &#10;&#9;C879.219971,789.998108 881.849487,795.320862 884.528687,800.617432 &#10;z" transform="matrix(1, 0, 0, 1, -4.547473508864641e-13, 0)" style="fill: rgb(255, 255, 255);"/>
  <path opacity="1.000000" stroke="none" d="&#10;M884.687195,800.191040 &#10;&#9;C881.849487,795.320862 879.219971,789.998108 876.449341,784.749756 &#10;&#9;C875.892944,783.695801 874.800354,782.924927 873.954956,782.023560 &#10;&#9;C873.081299,783.112183 871.808289,784.070557 871.403198,785.312134 &#10;&#9;C869.658142,790.661438 867.842407,796.024475 866.674316,801.514893 &#10;&#9;C865.463867,807.204407 861.513062,809.601135 856.755493,811.603516 &#10;&#9;C852.012817,813.599487 847.359131,815.813049 842.713379,818.029785 &#10;&#9;C841.431396,818.641479 840.317017,819.604614 838.043884,821.134644 &#10;&#9;C845.128113,824.266235 851.130188,827.305237 857.412537,829.565186 &#10;&#9;C861.828979,831.153870 864.021240,834.184143 865.748474,838.130493 &#10;&#9;C868.586121,844.613770 871.603516,851.018433 875.184265,858.855103 &#10;&#9;C876.913696,856.176147 878.094971,854.767456 878.817444,853.153320 &#10;&#9;C881.730286,846.645508 884.049805,839.819397 887.535095,833.645203 &#10;&#9;C889.045532,830.969543 892.664307,829.222412 895.655640,827.704163 &#10;&#9;C900.474854,825.258118 905.567505,823.350952 910.544617,821.216187 &#10;&#9;C910.653198,820.677795 910.761719,820.139404 910.870300,819.601074 &#10;&#9;C907.999329,817.995789 905.174194,816.300659 902.245667,814.808350 &#10;&#9;C898.698853,813.000854 894.813843,811.736755 891.548279,809.535645 &#10;&#9;C888.973633,807.800415 887.115112,805.002686 885.025940,802.321411 &#10;&#9;C892.130310,805.871399 899.126587,809.814575 906.173401,813.665283 &#10;&#9;C909.361389,815.407227 914.978943,815.354980 914.313049,820.065125 &#10;&#9;C913.992920,822.329834 909.078918,824.033447 906.142212,825.821655 &#10;&#9;C899.745728,829.716553 893.355530,833.576660 889.650818,840.492371 &#10;&#9;C886.677917,846.042053 884.024292,851.811218 880.528748,857.012512 &#10;&#9;C878.711243,859.716919 875.378540,861.403015 872.153503,864.016479 &#10;&#9;C866.979492,853.870789 862.565674,845.094727 857.991821,836.402771 &#10;&#9;C857.431519,835.337952 855.917969,833.928528 855.010925,834.038513 &#10;&#9;C851.061157,834.517334 849.273926,832.291138 846.908875,829.629089 &#10;&#9;C844.759033,827.209351 841.023621,826.249695 838.135925,824.412598 &#10;&#9;C836.682800,823.488159 835.559753,822.044739 834.287354,820.835938 &#10;&#9;C835.461975,819.612122 836.449341,818.078857 837.851257,817.230896 &#10;&#9;C840.513489,815.620667 843.374573,814.317566 846.220947,813.037842 &#10;&#9;C854.221130,809.441162 858.598145,803.217041 862.679382,795.411743 &#10;&#9;C865.255310,790.485413 864.205933,784.054565 869.039612,780.517212 &#10;&#9;C871.171082,778.957397 874.045959,777.325134 876.401001,777.559326 &#10;&#9;C877.859924,777.704407 879.195007,781.195679 880.179993,783.368774 &#10;&#9;C881.037109,785.259888 881.298828,787.416443 881.870544,789.442505 &#10;&#9;C882.842957,792.888611 883.852051,796.324463 884.687195,800.191040 &#10;z" style="fill: rgb(255, 255, 255);" transform="matrix(1, 0, 0, 1, -4.547473508864641e-13, 0)"/>
  <path opacity="1.000000" stroke="none" d="&#10;M907.354492,628.694580 &#10;&#9;C900.377319,625.039246 893.608826,621.714966 886.877502,618.317139 &#10;&#9;C884.948059,617.343140 883.125977,616.156738 881.254639,615.067749 &#10;&#9;C882.852966,613.570312 884.239685,611.696960 886.093628,610.653564 &#10;&#9;C889.964600,608.474792 893.915771,606.159729 898.134460,604.937866 &#10;&#9;C905.967224,602.669434 910.281311,597.719360 912.110779,589.991211 &#10;&#9;C913.140320,585.641846 914.420288,581.308838 916.102661,577.178284 &#10;&#9;C916.766357,575.548706 918.653992,573.969849 920.335266,573.395935 &#10;&#9;C921.146790,573.118835 923.253967,574.973755 923.931152,576.295349 &#10;&#9;C925.591919,579.536316 926.899414,582.980408 928.105225,586.428101 &#10;&#9;C931.706970,596.726257 938.789856,603.174744 949.119324,606.534729 &#10;&#9;C952.517761,607.640259 955.748291,609.595459 958.690002,611.678589 &#10;&#9;C961.700439,613.810181 961.170532,616.169373 957.815857,617.646118 &#10;&#9;C953.730164,619.444641 949.714783,621.596008 945.439514,622.727295 &#10;&#9;C938.178467,624.648682 934.494080,629.522095 932.159912,636.174316 &#10;&#9;C930.361145,641.300476 928.336609,646.377991 925.950317,651.250854 &#10;&#9;C925.107056,652.972900 923.042786,654.361633 921.212097,655.160889 &#10;&#9;C920.716431,655.377319 918.663330,653.064270 917.965820,651.605835 &#10;&#9;C914.387878,644.124817 911.019104,636.543762 907.354492,628.694580 &#10;M936.363464,623.840454 &#10;&#9;C942.924683,620.840698 949.485962,617.840942 957.467041,614.192078 &#10;&#9;C953.473694,612.027039 950.845215,610.024536 947.880371,609.097839 &#10;&#9;C936.979126,605.690674 929.532410,599.225464 926.380615,587.860901 &#10;&#9;C925.255981,583.805786 922.573669,580.182678 920.266113,575.710632 &#10;&#9;C918.963013,577.384094 918.243164,577.939148 918.026672,578.647888 &#10;&#9;C916.817993,582.604614 915.558838,586.559265 914.639893,590.588318 &#10;&#9;C912.934265,598.066528 909.884583,603.983215 901.720825,606.551636 &#10;&#9;C896.197998,608.289124 891.138977,611.500854 885.872498,614.053223 &#10;&#9;C885.907471,614.562927 885.942444,615.072632 885.977356,615.582397 &#10;&#9;C891.813843,618.165283 897.542480,621.042053 903.521973,623.235107 &#10;&#9;C908.045166,624.894104 910.373535,627.973999 912.143799,632.168945 &#10;&#9;C914.806030,638.477539 917.882019,644.611572 920.782043,650.819824 &#10;&#9;C921.377258,650.829468 921.972534,650.839111 922.567810,650.848755 &#10;&#9;C924.101501,647.502686 925.545898,644.112061 927.188904,640.820557 &#10;&#9;C929.969421,635.250671 932.875427,629.743408 936.363464,623.840454 &#10;z" style="fill: rgb(255, 255, 255);" transform="matrix(1, 0, 0, 1, -4.547473508864641e-13, 0)"/>
  <path fill="#FBF7E5" opacity="1.000000" stroke="none" d="&#10;M447.920929,107.486649 &#10;&#9;C443.575745,100.499161 439.997101,92.513184 434.784607,85.794853 &#10;&#9;C431.175995,81.143738 425.313904,78.241013 420.235352,74.306274 &#10;&#9;C428.588287,66.146408 437.930878,59.420685 447.990326,55.379742 &#10;&#9;C447.990326,72.552536 447.990326,89.790779 447.920929,107.486649 &#10;z" transform="matrix(1, 0, 0, 1, -4.547473508864641e-13, 0)"/>
  <path opacity="1.000000" stroke="none" d="&#10;M904.068115,530.935425 &#10;&#9;C900.804626,529.043640 897.759460,527.465881 893.504639,525.261414 &#10;&#9;C902.010132,522.996643 907.452271,518.773132 908.239014,509.888550 &#10;&#9;C910.972290,517.518066 915.055359,523.008667 923.114624,525.312317 &#10;&#9;C915.071533,527.351868 911.497742,532.938904 908.617798,540.182678 &#10;&#9;C907.174011,537.204956 905.730286,534.227173 904.068115,530.935425 &#10;z" transform="matrix(1, 0, 0, 1, -4.547473508864641e-13, 0)" style="fill: rgb(255, 255, 255);"/>
  <path opacity="1.000000" stroke="none" d="&#10;M75.255859,630.648438 &#10;&#9;C76.897980,632.634033 78.168243,634.559998 79.910370,635.847473 &#10;&#9;C81.700584,637.170471 83.951561,637.869934 86.257103,639.417053 &#10;&#9;C77.814323,640.505737 75.513931,647.186707 72.907036,653.943787 &#10;&#9;C67.799484,644.012146 67.799484,644.012146 58.149475,639.126221 &#10;&#9;C66.345024,637.284973 71.133636,632.807434 72.552399,624.738525 &#10;&#9;C73.398666,626.595154 74.244926,628.451782 75.255859,630.648438 &#10;z" transform="matrix(1, 0, 0, 1, -4.547473508864641e-13, 0)" style="fill: rgb(255, 255, 255);"/>
  <path opacity="1.000000" stroke="none" d="&#10;M924.057739,718.994995 &#10;&#9;C920.757935,716.484802 917.559875,714.339172 913.950378,711.917542 &#10;&#9;C921.403198,710.338989 926.090515,705.749512 927.026245,697.417053 &#10;&#9;C929.838135,704.605347 933.595215,710.244568 942.017700,711.995483 &#10;&#9;C934.843689,715.324097 934.843689,715.324097 927.529968,726.423706 &#10;&#9;C926.357483,723.966431 925.258423,721.663025 924.057739,718.994995 &#10;z" transform="matrix(1, 0, 0, 1, -4.547473508864641e-13, 0)" style="fill: rgb(255, 255, 255);"/>
  <path opacity="1.000000" stroke="none" d="&#10;M799.822876,901.214722 &#10;&#9;C801.848267,902.438538 803.873657,903.662292 805.899048,904.886047 &#10;&#9;C806.145508,905.339722 806.391907,905.793335 806.638367,906.246948 &#10;&#9;C795.350159,908.126648 790.770447,916.202881 786.726440,925.422180 &#10;&#9;C784.653015,922.951111 782.662781,920.449829 781.606873,917.602112 &#10;&#9;C780.027283,913.342468 777.424927,910.659485 773.093079,909.299438 &#10;&#9;C770.828369,908.588501 768.773865,907.208008 766.624390,906.129883 &#10;&#9;C766.393555,905.646301 766.162720,905.162659 765.931946,904.679016 &#10;&#9;C776.867981,901.908264 783.207153,895.140442 784.097351,883.634705 &#10;&#9;C784.734741,883.811829 785.372192,883.988953 786.009583,884.166016 &#10;&#9;C788.001099,888.780762 789.992554,893.395508 791.639893,897.972900 &#10;&#9;C789.468018,894.981201 787.640320,892.026855 785.812561,889.072510 &#10;&#9;C785.352295,888.885742 784.892029,888.698975 784.431763,888.512268 &#10;&#9;C784.176208,897.935364 777.647217,901.904114 769.609131,905.217712 &#10;&#9;C774.163086,907.899536 778.005676,909.211914 780.407654,911.840698 &#10;&#9;C782.874695,914.540833 783.934570,918.526794 786.111328,922.973694 &#10;&#9;C788.314148,918.248474 789.304688,914.287659 791.687256,911.529236 &#10;&#9;C794.068970,908.771973 797.843140,907.217468 800.958008,905.167847 &#10;&#9;C798.043640,902.909546 795.521545,900.955200 793.363586,898.992188 &#10;&#9;C795.759399,899.727173 797.791138,900.470947 799.822876,901.214722 &#10;z" style="fill: rgb(255, 255, 255);" transform="matrix(1, 0, 0, 1, -4.547473508864641e-13, 0)"/>
  <path opacity="1.000000" stroke="none" d="&#10;M791.984070,898.010254 &#10;&#9;C789.992554,893.395508 788.001099,888.780762 786.009583,884.166016 &#10;&#9;C785.372192,883.988953 784.734741,883.811829 784.097351,883.634705 &#10;&#9;C783.207153,895.140442 776.867981,901.908264 765.931946,904.679016 &#10;&#9;C766.162720,905.162659 766.393555,905.646301 766.624390,906.129883 &#10;&#9;C768.773865,907.208008 770.828369,908.588501 773.093079,909.299438 &#10;&#9;C777.424927,910.659485 780.027283,913.342468 781.606873,917.602112 &#10;&#9;C782.662781,920.449829 784.653015,922.951111 786.539062,925.699951 &#10;&#9;C785.673523,928.634521 784.327698,927.962769 783.168274,925.853821 &#10;&#9;C782.052612,923.824463 781.190002,921.657776 780.159912,919.579285 &#10;&#9;C777.497986,914.208496 772.721924,911.445312 767.525940,909.005249 &#10;&#9;C761.744690,906.290283 761.685242,904.663635 766.930786,900.958374 &#10;&#9;C768.540222,899.821533 770.334290,898.743469 772.206543,898.218201 &#10;&#9;C778.561218,896.435547 780.861267,892.869751 780.620667,886.596680 &#10;&#9;C780.534668,884.353577 782.569702,882.006226 783.827454,879.816040 &#10;&#9;C783.879150,879.725952 786.384216,880.464905 786.880005,881.319824 &#10;&#9;C788.288391,883.748596 788.868225,886.706299 790.466797,888.965698 &#10;&#9;C793.319824,892.997742 796.681274,896.670044 799.826477,900.853760 &#10;&#9;C797.791138,900.470947 795.759399,899.727173 793.201782,898.819580 &#10;&#9;C792.456421,898.428650 792.225830,898.213501 791.984070,898.010254 &#10;M784.370728,880.662842 &#10;&#9;C784.600586,880.965454 784.830444,881.268005 785.060303,881.570557 &#10;&#9;C785.256226,881.386414 785.452087,881.202271 785.648010,881.018127 &#10;&#9;C785.350098,880.779541 785.052185,880.541016 784.370728,880.662842 &#10;z" style="fill: rgb(255, 255, 255);" transform="matrix(1, 0, 0, 1, -4.547473508864641e-13, 0)"/>
  <path fill="#FEFAE7" opacity="1.000000" stroke="none" d="&#10;M762.660156,709.617065 &#10;&#9;C762.883057,709.613464 763.255493,709.787720 763.380859,710.045105 &#10;&#9;C763.133667,710.128174 762.809692,709.794922 762.660156,709.617065 &#10;z" transform="matrix(1, 0, 0, 1, -4.547473508864641e-13, 0)"/>
  <path fill="#FCF9E6" opacity="1.000000" stroke="none" d="&#10;M493.679657,73.819717 &#10;&#9;C493.716888,73.990715 493.495667,74.213333 493.127594,74.298431 &#10;&#9;C493.127594,74.064384 493.274414,73.967873 493.679657,73.819717 &#10;z" transform="matrix(1, 0, 0, 1, -4.547473508864641e-13, 0)"/>
  <path opacity="1.000000" stroke="none" d="&#10;M280.642426,947.719238 &#10;&#9;C267.461456,944.006958 262.001831,933.979553 258.605865,922.419800 &#10;&#9;C253.698959,905.716858 254.257645,889.179077 262.105957,873.455688 &#10;&#9;C266.596130,864.460144 273.180450,857.551086 284.444550,857.873596 &#10;&#9;C292.809265,858.113037 298.222443,863.221313 302.598236,869.532104 &#10;&#9;C314.715363,887.007446 314.859802,918.231323 303.040253,935.935303 &#10;&#9;C297.824036,943.748291 291.027069,948.764954 280.642426,947.719238 &#10;z" transform="matrix(1, 0, 0, 1, -4.547473508864641e-13, 0)" style="fill: rgb(135, 126, 255);"/>
  <path opacity="1.000000" stroke="none" d="&#10;M252.375244,752.254028 &#10;&#9;C260.609192,756.818115 264.533966,763.494141 263.625000,770.933533 &#10;&#9;C262.685059,778.626343 257.600739,784.712769 250.386841,786.780884 &#10;&#9;C243.339340,788.801270 235.703171,786.405334 231.084976,780.724670 &#10;&#9;C225.985703,774.452271 225.572739,765.823242 230.045609,759.006592 &#10;&#9;C234.644394,751.998047 242.809052,749.430176 252.375244,752.254028 &#10;z" transform="matrix(1, 0, 0, 1, -4.547473508864641e-13, 0)" style="fill: rgb(127, 120, 220);"/>
  <path fill="#000F2E" opacity="1.000000" stroke="none" d="&#10;M327.310059,705.392090 &#10;&#9;C327.656555,705.276917 328.214325,705.382324 328.930481,705.732178 &#10;&#9;C328.566315,705.855286 328.043823,705.734070 327.310059,705.392090 &#10;z" transform="matrix(1, 0, 0, 1, -4.547473508864641e-13, 0)"/>
  <path opacity="1.000000" stroke="none" d="&#10;M200.624298,212.627991 &#10;&#9;C209.882278,204.496475 218.754227,196.451538 227.955307,188.802536 &#10;&#9;C233.924179,183.840546 241.262100,183.945557 248.368301,185.376160 &#10;&#9;C250.375092,185.780136 252.747147,188.126221 253.560440,190.142700 &#10;&#9;C267.334259,224.293304 280.893555,258.530487 294.475555,292.758331 &#10;&#9;C295.143555,294.441681 295.797729,296.179321 296.092010,297.952484 &#10;&#9;C296.802643,302.233917 295.789001,305.075775 291.039246,307.016785 &#10;&#9;C281.604248,310.872467 275.304871,318.593262 270.158997,327.102112 &#10;&#9;C251.964661,357.186798 240.484741,389.657593 236.190109,424.587280 &#10;&#9;C235.705368,428.529785 236.064743,432.574402 236.005676,436.571289 &#10;&#9;C235.939346,441.058868 234.074951,442.445221 230.131866,440.723297 &#10;&#9;C187.716553,422.200745 162.277466,390.110992 155.903305,344.310516 &#10;&#9;C148.820343,293.417175 166.683548,250.310760 200.624298,212.627991 &#10;z" transform="matrix(1, 0, 0, 1, -4.547473508864641e-13, 0)" style="fill: rgb(135, 126, 255);"/>
  <path opacity="1.000000" stroke="none" d="&#10;M800.805054,440.057129 &#10;&#9;C799.907288,438.296875 798.846497,436.784943 798.843445,435.270905 &#10;&#9;C798.767212,397.313507 786.319458,363.157562 765.827271,331.902771 &#10;&#9;C757.863708,319.756775 747.695557,309.009033 738.074646,298.024689 &#10;&#9;C735.059448,294.582214 735.290222,291.901367 736.686157,288.185730 &#10;&#9;C748.052551,257.932343 759.290588,227.630676 770.564148,197.342422 &#10;&#9;C771.084656,195.944061 771.554443,194.526749 772.078979,193.129944 &#10;&#9;C775.244446,184.698807 784.385986,181.359161 791.849609,186.270416 &#10;&#9;C815.286438,201.692429 835.517517,220.474442 851.044434,244.008102 &#10;&#9;C868.213745,270.031250 878.122437,298.357269 876.988708,329.860779 &#10;&#9;C875.617065,367.977295 859.174194,398.818115 830.312744,423.162445 &#10;&#9;C823.106873,429.240540 814.933960,434.198242 807.018921,439.386261 &#10;&#9;C805.506653,440.377472 803.118713,440.032806 800.805054,440.057129 &#10;z" transform="matrix(1, 0, 0, 1, -4.547473508864641e-13, 0)" style="fill: rgb(135, 126, 255);"/>
  <path opacity="1.000000" stroke="none" d="&#10;M399.698425,348.609375 &#10;&#9;C438.178864,333.799744 478.905304,357.368103 488.391144,394.054321 &#10;&#9;C499.707703,437.821014 465.103729,479.781830 419.935791,477.503540 &#10;&#9;C387.229156,475.853729 354.489441,447.741211 357.229279,406.798157 &#10;&#9;C359.077057,379.185181 373.652740,359.663086 399.698425,348.609375 &#10;z" transform="matrix(1, 0, 0, 1, -4.547473508864641e-13, 0)" style="fill: rgb(135, 126, 255);"/>
  <path opacity="1.000000" stroke="none" d="&#10;M805.976440,552.375977 &#10;&#9;C802.803162,548.681580 800.202759,544.193054 796.362732,541.422913 &#10;&#9;C773.262390,524.758484 747.144714,532.511475 733.816040,556.305359 &#10;&#9;C726.747192,568.924316 725.565857,582.391907 727.892395,596.393066 &#10;&#9;C729.252869,604.580383 723.313171,614.441406 713.688660,619.019958 &#10;&#9;C699.680969,625.683594 680.249084,622.571960 673.161438,606.354431 &#10;&#9;C670.412903,600.065308 671.822144,593.757507 672.972473,587.369995 &#10;&#9;C677.201721,563.886169 661.549072,539.843689 638.420776,534.048340 &#10;&#9;C620.794189,529.631531 599.639343,536.162354 589.869019,549.455261 &#10;&#9;C582.149353,552.500610 577.642517,557.751099 576.161499,565.178589 &#10;&#9;C575.403015,568.982239 575.969299,573.050049 575.936890,576.998474 &#10;&#9;C570.562134,578.352417 570.038147,578.006287 569.971863,572.746582 &#10;&#9;C569.610168,544.061279 581.068176,521.593567 605.427246,506.123535 &#10;&#9;C612.828369,501.423218 621.021118,498.905090 629.947449,498.932495 &#10;&#9;C653.414490,499.004547 676.882568,499.054321 700.348938,498.902679 &#10;&#9;C714.469055,498.811432 728.585327,498.214813 742.705688,498.041565 &#10;&#9;C773.384644,497.665070 795.732849,512.335632 811.089050,537.799011 &#10;&#9;C816.120972,546.142761 818.386658,556.190979 821.627869,565.559937 &#10;&#9;C822.851318,569.096252 820.660034,570.808411 816.750000,570.629883 &#10;&#9;C816.313538,562.250427 813.142944,556.156677 805.976440,552.375977 &#10;z" transform="matrix(1, 0, 0, 1, -4.547473508864641e-13, 0)" style="fill: rgb(161, 154, 248);"/>
  <path opacity="1.000000" stroke="none" d="&#10;M576.061340,577.354004 &#10;&#9;C575.969299,573.050049 575.403015,568.982239 576.161499,565.178589 &#10;&#9;C577.642517,557.751099 582.149353,552.500610 589.764038,549.807617 &#10;&#9;C607.141724,545.346252 621.043030,552.058838 633.342773,562.943848 &#10;&#9;C643.758484,572.161499 650.946655,583.280762 650.288269,598.048157 &#10;&#9;C650.005493,604.393188 647.781921,609.914612 642.675537,613.634766 &#10;&#9;C623.721619,627.443604 602.391907,633.584778 579.004700,632.278809 &#10;&#9;C577.152954,632.175415 574.258606,630.558105 573.847534,629.086243 &#10;&#9;C573.016968,626.111938 575.624207,625.099609 578.264221,623.743225 &#10;&#9;C585.698792,619.923889 592.720642,615.301208 600.770142,610.476868 &#10;&#9;C588.315308,601.378174 579.748352,591.335571 576.061340,577.354004 &#10;z" transform="matrix(1, 0, 0, 1, -4.547473508864641e-13, 0)" style="fill: rgb(135, 126, 255);"/>
  <path opacity="1.000000" stroke="none" d="&#10;M805.568237,552.252808 &#10;&#9;C813.142944,556.156677 816.313538,562.250427 816.385620,570.619385 &#10;&#9;C814.630249,588.281433 804.883423,600.738770 791.504517,611.706787 &#10;&#9;C796.844666,616.645325 800.912964,622.886292 809.399109,622.658508 &#10;&#9;C810.543884,622.627808 812.862732,624.748535 812.700073,625.278564 &#10;&#9;C812.182190,626.966980 810.982666,629.385925 809.625977,629.698730 &#10;&#9;C805.791077,630.582764 801.715881,631.052002 797.790649,630.805054 &#10;&#9;C783.164368,629.884766 769.392578,625.713928 756.407349,618.950012 &#10;&#9;C749.152039,615.170837 745.468262,606.556152 747.449585,596.983154 &#10;&#9;C751.361755,578.080933 763.129822,565.135620 779.389893,555.717285 &#10;&#9;C787.501953,551.018494 796.026917,549.424805 805.568237,552.252808 &#10;z" transform="matrix(1, 0, 0, 1, -4.547473508864641e-13, 0)" style="fill: rgb(135, 126, 255);"/>
  <path opacity="1.000000" stroke="none" d="&#10;M936.046021,624.025146 &#10;&#9;C932.875427,629.743408 929.969421,635.250671 927.188904,640.820557 &#10;&#9;C925.545898,644.112061 924.101501,647.502686 922.567810,650.848755 &#10;&#9;C921.972534,650.839111 921.377258,650.829468 920.782043,650.819824 &#10;&#9;C917.882019,644.611572 914.806030,638.477539 912.143799,632.168945 &#10;&#9;C910.373535,627.973999 908.045166,624.894104 903.521973,623.235107 &#10;&#9;C897.542480,621.042053 891.813843,618.165283 885.977356,615.582397 &#10;&#9;C885.942444,615.072632 885.907471,614.562927 885.872498,614.053223 &#10;&#9;C891.138977,611.500854 896.197998,608.289124 901.720825,606.551636 &#10;&#9;C909.884583,603.983215 912.934265,598.066528 914.639893,590.588318 &#10;&#9;C915.558838,586.559265 916.817993,582.604614 918.026672,578.647888 &#10;&#9;C918.243164,577.939148 918.963013,577.384094 920.266113,575.710632 &#10;&#9;C922.573669,580.182678 925.255981,583.805786 926.380615,587.860901 &#10;&#9;C929.532410,599.225464 936.979126,605.690674 947.880371,609.097839 &#10;&#9;C950.845215,610.024536 953.473694,612.027039 957.467041,614.192078 &#10;&#9;C949.485962,617.840942 942.924683,620.840698 936.046021,624.025146 &#10;z" style="fill: rgb(255, 255, 255);" transform="matrix(1, 0, 0, 1, -4.547473508864641e-13, 0)"/>
  <path opacity="1.000000" stroke="none" d="&#10;M791.639893,897.972900 &#10;&#9;C792.225830,898.213501 792.456421,898.428650 792.837646,898.828247 &#10;&#9;C795.521545,900.955200 798.043640,902.909546 800.958008,905.167847 &#10;&#9;C797.843140,907.217468 794.068970,908.771973 791.687256,911.529236 &#10;&#9;C789.304688,914.287659 788.314148,918.248474 786.111328,922.973694 &#10;&#9;C783.934570,918.526794 782.874695,914.540833 780.407654,911.840698 &#10;&#9;C778.005676,909.211914 774.163086,907.899536 769.609131,905.217712 &#10;&#9;C777.647217,901.904114 784.176208,897.935364 784.431763,888.512268 &#10;&#9;C784.892029,888.698975 785.352295,888.885742 785.812561,889.072510 &#10;&#9;C787.640320,892.026855 789.468018,894.981201 791.639893,897.972900 &#10;z" style="fill: rgb(255, 255, 255);" transform="matrix(1, 0, 0, 1, -4.547473508864641e-13, 0)"/>
  <path opacity="1.000000" stroke="none" d="&#10;M784.562500,880.482666 &#10;&#9;C785.052185,880.541016 785.350098,880.779541 785.648010,881.018127 &#10;&#9;C785.452087,881.202271 785.256226,881.386414 785.060303,881.570557 &#10;&#9;C784.830444,881.268005 784.600586,880.965454 784.562500,880.482666 &#10;z" transform="matrix(1, 0, 0, 1, -4.547473508864641e-13, 0)" style="fill: rgb(255, 255, 255);"/>
</svg>